<svg xmlns="http://www.w3.org/2000/svg"  viewBox="0 0 24 24" width="96px" height="96px"><path d="M13.41,2.381c0.128,0.261,0.256,0.522,0.384,0.784c0.223,0.455,0.447,0.91,0.667,1.365 c0.049,0.101,0.028,0.452,0.011,0.734c-0.014,0.239-0.027,0.477-0.026,0.715c0.011,2.74-0.01,5.521-0.032,7.881 c-0.005,0.534,0.161,1.036,0.47,1.44c-0.383,0.546-0.464,1.105-0.462,1.486c0.001,0.22,0.001,0.44,0,0.66 c-0.165-0.048-0.349-0.083-0.552-0.1c-0.087-0.007-0.168-0.01-0.242-0.01c-0.794,0-1.299,0.342-1.515,0.507 c-0.386,0.236-0.696,0.519-0.93,0.846c-0.051-0.002-0.103-0.003-0.156-0.003c-0.153,0-0.312,0.009-0.479,0.026l0.008-0.826 l-0.037,0.011v-1.661v-0.625c0.192-0.092,0.367-0.185,0.53-0.27l0.203-0.106c0.735-0.379,1.196-1.042,1.263-1.818 c0.03-0.348-0.021-0.658-0.119-0.93c0.216-0.613,0.128-1.184,0.001-1.596c0.048-0.148,0.084-0.294,0.106-0.435 c0.055-0.346,0.037-0.685-0.046-1c0.019-0.06,0.036-0.121,0.051-0.182c0.102-0.429,0.087-0.866-0.034-1.267 c0.11-0.473,0.078-0.974-0.098-1.453c-0.376-1.021-1.203-1.435-1.91-1.492c0.014-0.168,0.039-0.324,0.081-0.466 c0.031-0.107,0.27-0.691,1.898-1.727C12.715,2.698,13.047,2.536,13.41,2.381 M14.206,0c-0.133,0-0.288,0.039-0.455,0.1 c-0.872,0.32-1.712,0.657-2.381,1.083c-1.348,0.858-2.438,1.812-2.743,2.851C8.302,5.141,8.532,6.285,8.52,7.413 c-0.001,0.12,0.067,0.17,0.181,0.17c0.08,0,0.182-0.025,0.299-0.067c0.333-0.122,0.666-0.244,0.984-0.374 c0.138-0.056,0.236-0.085,0.308-0.085c0.107,0,0.158,0.063,0.205,0.19c0.178,0.483-0.265,0.791-1.075,1.028 C9.044,8.387,8.676,8.512,8.528,8.728C8.479,8.8,8.448,8.886,8.58,8.944c0.047,0.02,0.09,0.028,0.13,0.028 c0.109,0,0.195-0.058,0.27-0.085c0.356-0.128,0.682-0.276,1.035-0.407c0.087-0.032,0.189-0.093,0.293-0.093 c0.064,0,0.129,0.023,0.19,0.091c0.221,0.243-0.053,0.772-0.501,0.943C9.649,9.553,9.29,9.68,8.929,9.804 c-0.255,0.087-0.398,0.201-0.418,0.35c-0.01,0.073-0.068,0.162,0.082,0.211c0.043,0.014,0.084,0.02,0.123,0.02 c0.11,0,0.207-0.045,0.295-0.081c0.341-0.14,0.675-0.284,1.015-0.425c0.083-0.034,0.17-0.075,0.26-0.075 c0.059,0,0.119,0.018,0.179,0.067c0.204,0.165-0.07,0.819-0.398,0.946c-0.449,0.174-0.916,0.338-1.354,0.518 c-0.279,0.115-0.306,0.296-0.09,0.408c0.046,0.024,0.093,0.033,0.14,0.033c0.15,0,0.304-0.097,0.453-0.139 c0.422-0.118,0.652-0.358,1.164-0.425c0.317,0.711,0.189,0.824-1.016,1.222C8.83,12.61,8.34,12.84,8.629,13.253 c0.511-0.188,0.979-0.361,1.456-0.537c0.321,0.243,0.656,0.533,0.249,0.743c-0.702,0.362-1.387,0.792-2.53,0.792 c-0.163,0-0.334-0.009-0.517-0.028c-0.09-0.009-0.183-0.012-0.278-0.012c-0.17,0-0.345,0.01-0.516,0.012 c-0.203,0.003-0.414,0.045-0.414,0.141c-0.001,0.321-0.293,0.687,0.245,0.949c0.683,0.332,1.454,0.622,2.194,0.924v3.45 c-0.007,0.141-0.007,0.281,0,0.422v0.487l0.011-0.003c-0.001,0.044,0.003,0.089,0,0.133C8.523,20.836,8.605,20.9,8.727,20.9 c0.08,0,0.178-0.028,0.28-0.088c0.171-0.101,0.318-0.192,0.497-0.192c0.114,0,0.241,0.037,0.396,0.131 c0.052,0.032,0.122,0.043,0.197,0.043c0.106,0,0.225-0.022,0.326-0.042c0.232-0.044,0.433-0.066,0.603-0.066 c0.484,0,0.718,0.178,0.713,0.535c-0.011,0.785-0.011,1.57-0.003,2.355c0.002,0.157-0.08,0.342,0.348,0.423 c0.149,0,0.301,0,0.452,0.001c0.16-0.085,0.122-0.189,0.122-0.289c-0.001-1.063,0.011-2.126-0.009-3.189 c-0.007-0.362,0.038-0.702,0.552-0.999c0.136-0.078,0.182-0.187,0.427-0.187c0.025,0,0.052,0.001,0.081,0.003 c0.355,0.029,0.277,0.161,0.278,0.267c0.006,0.406-0.001,0.811-0.001,1.217c-0.001,0.559,0,1.119,0,1.721 c0.912-0.227,1.167-0.623,1.767-0.858c0.45-0.176,0.65-0.374,0.649-0.65c-0.003-1.419,0.025-2.839,0.02-4.258 c-0.001-0.328,0.241-0.566,0.764-0.784c0.532-0.221,1.085-0.441,1.491-0.725c0.414-0.289,0.387-0.614,0.154-0.907 c-0.098-0.123-0.282-0.152-0.492-0.152c-0.19,0-0.403,0.024-0.594,0.024c-0.044,0-0.086-0.001-0.127-0.004 c-0.078-0.006-0.159-0.008-0.24-0.008c-0.079,0-0.159,0.002-0.237,0.007c-0.057,0.003-0.11,0.005-0.159,0.005 c-0.433,0-0.572-0.12-0.57-0.354c0.025-2.636,0.043-5.271,0.032-7.907c-0.003-0.77,0.184-1.547-0.185-2.311 c-0.552-1.142-1.125-2.282-1.666-3.425C14.516,0.066,14.379,0,14.206,0L14.206,0z"/></svg>